<svg xmlns="http://www.w3.org/2000/svg" width="54" height="54" viewBox="0 0 54 54"><defs><clipPath id="u88ja"><path fill="#fff" d="M27.236.307c14.615 0 26.463 12.005 26.463 26.816 0 14.81-11.848 26.816-26.463 26.816C12.62 53.939.772 41.933.772 27.123.772 12.313 12.62.307 27.236.307z"/></clipPath></defs><g><g><path fill="none" stroke="#3a589b" stroke-miterlimit="50" stroke-width="2" d="M27.236.307c14.615 0 26.463 12.005 26.463 26.816 0 14.81-11.848 26.816-26.463 26.816C12.62 53.939.772 41.933.772 27.123.772 12.313 12.62.307 27.236.307z" clip-path="url(&quot;#u88ja&quot;)"/></g><g><path fill="#414594" d="M20.313 27.191h2.865v11.43c0 .226.19.408.422.408h4.858c.232 0 .42-.182.42-.408V27.245h3.294a.416.416 0 0 0 .418-.361l.5-4.208a.402.402 0 0 0-.104-.318.426.426 0 0 0-.314-.137h-3.793v-2.638c0-.795.442-1.198 1.312-1.198h2.48c.234 0 .422-.183.422-.409v-3.861a.415.415 0 0 0-.421-.41h-3.418c-.024 0-.078-.002-.157-.002-.592 0-2.654.113-4.282 1.565-1.805 1.609-1.554 3.535-1.494 3.869v3.084h-3.008a.415.415 0 0 0-.421.409v4.153c0 .226.189.408.42.408z"/></g></g></svg>